<svg xmlns="http://www.w3.org/2000/svg" width="163.481" height="66.045" viewBox="0 0 163.481 66.045">
  <g id="logo" transform="translate(-77.9 -96.5)">
    <path id="Path_127" data-name="Path 127" d="M110.4,115.4,77.9,165.755l65.585-10.295,64.583,12.415,33.313-51.4-87.948,15.577Z" transform="translate(0 -11.613)" fill="#e60012"/>
    <path id="Path_128" data-name="Path 128" d="M118.979,123.1,90.1,167.556l61.151-9.832,63.117,12.3,29.573-45.536-83.36,14.69Z" transform="translate(-7.496 -16.344)" fill="none" stroke="#fff" stroke-miterlimit="10" stroke-width="4"/>
    <g id="Group_107" data-name="Group 107" transform="translate(86.151 99.662)">
      <g id="Group_106" data-name="Group 106">
        <path id="Path_129" data-name="Path 129" d="M145.954,132.114c-1.388,1.311-3.123,2.892-5.205,4.781s-4.241,3.856-6.439,5.861c-2.2,2.044-4.318,4.01-6.285,5.976-2,1.928-3.586,3.624-4.82,5.051a10.726,10.726,0,0,1-1.774,3.046,2.961,2.961,0,0,1-2.121,1.272c-.54,0-.81-.231-.81-.655a1.186,1.186,0,0,1,.231-.733c.154-.193.347-.424.5-.617a3.208,3.208,0,0,0,.5-.694,1.832,1.832,0,0,0,.231-.925,8.645,8.645,0,0,0-.655-3.432,7.2,7.2,0,0,0-1.851-2.506A7.991,7.991,0,0,0,114.646,147a11.2,11.2,0,0,0-3.432-.5,6.17,6.17,0,0,0-1.735.347c-.733.231-1.581.5-2.506.81s-1.928.617-2.969.887a11.632,11.632,0,0,1-2.969.386,2.936,2.936,0,0,1-1.234-.231.771.771,0,0,1-.5-.733c0-.308.231-.617.733-.81a8.481,8.481,0,0,1,1.889-.578,23.122,23.122,0,0,1,2.506-.347c.925-.077,1.812-.154,2.7-.231s1.7-.116,2.429-.116c.733-.039,1.272-.039,1.658-.077a13.808,13.808,0,0,0,5.591-3.509,41.573,41.573,0,0,0,4.935-5.976c1.581-2.313,3.162-4.82,4.742-7.557s3.239-5.475,4.974-8.251a12.477,12.477,0,0,1-3.586-1.08,11.257,11.257,0,0,1-3.007-1.966,9.379,9.379,0,0,1-2.082-2.815,8.373,8.373,0,0,1-.771-3.547,6.142,6.142,0,0,1,.5-2.468,6.388,6.388,0,0,1,1.388-2.044,6.564,6.564,0,0,1,2.082-1.388,6.376,6.376,0,0,1,2.545-.5,8.665,8.665,0,0,1,2.236.27,8.958,8.958,0,0,1,1.812.655l-.231.655a8.68,8.68,0,0,0-1.7-.617,9.165,9.165,0,0,0-2.121-.231,5.37,5.37,0,0,0-2.352.5,5.607,5.607,0,0,0-1.812,1.311,6.037,6.037,0,0,0-1.157,1.812,5.387,5.387,0,0,0-.424,2.044,7.4,7.4,0,0,0,.771,3.239,9.254,9.254,0,0,0,2.044,2.7,10.371,10.371,0,0,0,2.969,1.928,9.967,9.967,0,0,0,3.509.848,40.34,40.34,0,0,1,4.126-5.282,41.651,41.651,0,0,1,5.244-4.858,26.513,26.513,0,0,1,6.015-3.547,15.876,15.876,0,0,1,6.439-1.388,5.826,5.826,0,0,1,3.663,1.041,3.764,3.764,0,0,1,1.349,3.239,7.028,7.028,0,0,1-1.581,4.126,16.159,16.159,0,0,1-4.357,3.933,25.7,25.7,0,0,1-6.555,2.93,28.736,28.736,0,0,1-8.1,1.118c-.694,0-1.272,0-1.774-.039s-1-.039-1.5-.077c-1.5,2.352-3.007,4.781-4.55,7.287a71.333,71.333,0,0,1-4.974,7.133,45.208,45.208,0,0,1-5.976,6.169,25.748,25.748,0,0,1-7.441,4.434l.116.116c.308-.039.694-.077,1.08-.116a13.465,13.465,0,0,1,1.349-.077c2.776,0,4.82.655,6.169,2a8.407,8.407,0,0,1,2.468,4.935c1.619-1.812,3.354-3.624,5.244-5.4,1.851-1.774,3.779-3.547,5.706-5.282s3.894-3.47,5.822-5.205,3.779-3.393,5.552-5.012Zm7.249-26.836a10.9,10.9,0,0,0-5.4,1.5,25.251,25.251,0,0,0-4.974,3.7,36.139,36.139,0,0,0-4.241,4.82,54.372,54.372,0,0,0-3.2,4.781c.463.039.925.077,1.388.077.5.039,1.041.039,1.7.039a25.986,25.986,0,0,0,5.938-.733,25.642,25.642,0,0,0,5.976-2.159,15.388,15.388,0,0,0,4.627-3.547,7.179,7.179,0,0,0,1.851-4.9,3.483,3.483,0,0,0-.925-2.66A3.8,3.8,0,0,0,153.2,105.278Z" transform="translate(-99.3 -104.7)" fill="#e60012" stroke="#e60012" stroke-miterlimit="10" stroke-width="2"/>
        <path id="Path_130" data-name="Path 130" d="M180.8,162.339c-1.465,2.121-2.93,4.126-4.4,6.092-1.465,1.928-2.776,3.74-3.933,5.359s-2.082,3.046-2.815,4.28a6.375,6.375,0,0,0-1.08,2.93c0,1.2.578,1.774,1.7,1.774a7.418,7.418,0,0,0,4.087-1.7,36.549,36.549,0,0,0,4.974-4.55,76.984,76.984,0,0,0,5.321-6.516c1.812-2.468,3.547-5.012,5.205-7.711h3.779c-2.391,3.277-4.627,6.67-6.709,10.14s-4.241,6.9-6.516,10.295a25.354,25.354,0,0,0,11.027-5.09,42.53,42.53,0,0,0,9.331-10.063l.424.193a40.5,40.5,0,0,1-9.948,10.719,26.332,26.332,0,0,1-11.3,4.974c-1.581,2.159-3.2,4.318-4.82,6.555a42.218,42.218,0,0,1-5.4,5.976,26.751,26.751,0,0,1-6.478,4.318,18.359,18.359,0,0,1-7.981,1.658,13.63,13.63,0,0,1-3.817-.5,10.572,10.572,0,0,1-3.123-1.427,7.175,7.175,0,0,1-2.121-2.2,5.038,5.038,0,0,1-.81-2.738,5.234,5.234,0,0,1,2.082-4.627,8.712,8.712,0,0,1,5.089-1.465v.193a4.988,4.988,0,0,0-3.239,1.966,6.387,6.387,0,0,0-1.041,3.74,5.575,5.575,0,0,0,.617,2.7,5.746,5.746,0,0,0,1.581,1.966,7.408,7.408,0,0,0,2.236,1.234,8.432,8.432,0,0,0,2.583.424,12.529,12.529,0,0,0,5.552-1.35,24.252,24.252,0,0,0,5.128-3.509,41.5,41.5,0,0,0,4.7-4.974c1.5-1.851,2.93-3.74,4.241-5.706,1.349-1.966,2.583-3.894,3.74-5.784s2.236-3.586,3.2-5.09l-.116-.116c-.655.771-1.427,1.658-2.391,2.7a32.309,32.309,0,0,1-3.085,2.969,21.2,21.2,0,0,1-3.547,2.391,8.314,8.314,0,0,1-3.894.964,4.025,4.025,0,0,1-2.815-.81,2.733,2.733,0,0,1-.848-2.121,6.237,6.237,0,0,1,.655-2.583,27.042,27.042,0,0,1,2.044-3.432c.925-1.388,2.121-3.046,3.547-5.051s3.162-4.473,5.205-7.4H180.8Z" transform="translate(-127.625 -140.091)" fill="#e60012" stroke="#e60012" stroke-miterlimit="10" stroke-width="2"/>
        <path id="Path_131" data-name="Path 131" d="M295.3,166.991a55.524,55.524,0,0,1-4.241,5.822,39.324,39.324,0,0,1-5.244,5.205,25.579,25.579,0,0,1-6.246,3.74,18.1,18.1,0,0,1-7.21,1.427,10.441,10.441,0,0,1-2.738-.347,7.087,7.087,0,0,1-2.236-1.08,5.884,5.884,0,0,1-1.5-1.851,5.65,5.65,0,0,1-.578-2.66,4.416,4.416,0,0,1,1.041-2.853,3.429,3.429,0,0,1,2.815-1.272,2.334,2.334,0,0,1,1.5.463,1.671,1.671,0,0,1,.578,1.388,2.62,2.62,0,0,1-.424,1.465,1.385,1.385,0,0,1-1.272.617,1.579,1.579,0,0,1-1.08-.347,1.563,1.563,0,0,1-.5-.925,1.962,1.962,0,0,0-.925,1.08,4.424,4.424,0,0,0-.231,1.427,3.6,3.6,0,0,0,1.619,3.2,6.562,6.562,0,0,0,3.624,1.08,4.663,4.663,0,0,0,2.236-.5,5.349,5.349,0,0,0,1.581-1.35,5.271,5.271,0,0,0,.925-1.928,8.633,8.633,0,0,0,.308-2.2,7.552,7.552,0,0,0-.386-2.391c-.27-.848-.54-1.658-.887-2.468-.308-.81-.617-1.619-.925-2.391a7.114,7.114,0,0,1-.424-2.236,5.321,5.321,0,0,1,.54-2.391,5.2,5.2,0,0,1,1.5-1.812,6.754,6.754,0,0,1,2.159-1.118,7.982,7.982,0,0,1,2.545-.386,6.708,6.708,0,0,1,3.971,1.08,3.286,3.286,0,0,1,1.5,2.815,2.517,2.517,0,0,1-1.2,2.313,4.849,4.849,0,0,1-2.66.733,9.386,9.386,0,0,0,.656-1.619,5.776,5.776,0,0,0,.27-1.735,2.922,2.922,0,0,0-.771-2.044,2.82,2.82,0,0,0-2.159-.81,3.093,3.093,0,0,0-2.622,1.08,3.934,3.934,0,0,0-.848,2.583,7.087,7.087,0,0,0,.463,2.545,22.29,22.29,0,0,0,1.08,2.429c.347.81.694,1.658,1,2.506a8.356,8.356,0,0,1,.463,2.853,5.109,5.109,0,0,1-.5,2.236,7.415,7.415,0,0,1-1.388,1.928,9.245,9.245,0,0,1-1.928,1.5,6.7,6.7,0,0,1-2.159.81l.116.116a17.5,17.5,0,0,0,6.285-1.928,28.235,28.235,0,0,0,5.552-3.779,37.966,37.966,0,0,0,4.781-4.858,52.333,52.333,0,0,0,3.817-5.205Z" transform="translate(-201.296 -139.538)" fill="#e60012" stroke="#e60012" stroke-miterlimit="10" stroke-width="2"/>
        <path id="Path_132" data-name="Path 132" d="M358.991,167.238a12.429,12.429,0,0,1-3.277,2.622,7.594,7.594,0,0,1-3.586.964,5.53,5.53,0,0,1-2.93-.771,6.087,6.087,0,0,1-1.889-1.812h-.116a18.937,18.937,0,0,1-2.236,4.935,24.473,24.473,0,0,1-3.933,4.82,23.228,23.228,0,0,1-5.012,3.663,11.869,11.869,0,0,1-5.591,1.465,5.117,5.117,0,0,1-3.971-1.5,5.934,5.934,0,0,1-1.349-4.087,9.243,9.243,0,0,1,.655-3.085,19.552,19.552,0,0,1,1.851-3.547,26.1,26.1,0,0,1,2.815-3.509,22.106,22.106,0,0,1,3.509-3.085,17.529,17.529,0,0,1,3.971-2.2,11.663,11.663,0,0,1,4.241-.81A5.026,5.026,0,0,1,346,162.765a5.681,5.681,0,0,1,1.5,3.779,4,4,0,0,0,1.311,2.583,4.366,4.366,0,0,0,3.239,1.2,6.742,6.742,0,0,0,3.432-.925,12.436,12.436,0,0,0,3.007-2.391ZM328.377,179a4.389,4.389,0,0,0,.617,2.506,2.039,2.039,0,0,0,1.812.925,6.72,6.72,0,0,0,3.239-.887,13.176,13.176,0,0,0,3.085-2.313,22.708,22.708,0,0,0,2.776-3.239,31.349,31.349,0,0,0,2.236-3.779,27.921,27.921,0,0,0,1.5-3.817,12.617,12.617,0,0,0,.54-3.393,3.589,3.589,0,0,0-.655-2.159,2.289,2.289,0,0,0-1.966-.887,5.668,5.668,0,0,0-2.738.81,17.421,17.421,0,0,0-2.969,2.159,21.779,21.779,0,0,0-2.815,3.085,31.365,31.365,0,0,0-2.391,3.663,20.135,20.135,0,0,0-1.658,3.779A11.089,11.089,0,0,0,328.377,179Z" transform="translate(-238.039 -139.477)" fill="#e60012" stroke="#e60012" stroke-miterlimit="10" stroke-width="2"/>
        <path id="Path_133" data-name="Path 133" d="M420.331,106.8c-3.624,5.475-6.747,10.218-9.446,14.189-2.66,4.01-4.974,7.4-6.863,10.256s-3.47,5.167-4.665,7.017c-1.234,1.851-2.159,3.354-2.853,4.55a21.4,21.4,0,0,0-1.427,2.815,4.921,4.921,0,0,0-.386,1.774c0,1,.463,1.5,1.349,1.5a7.249,7.249,0,0,0,3.547-1.234,32.366,32.366,0,0,0,4.4-3.393,55.806,55.806,0,0,0,4.781-5.051c1.619-1.928,3.2-3.971,4.742-6.169l.655.231c-1.465,2.082-3.007,4.048-4.627,5.976a68.233,68.233,0,0,1-4.665,5.012,33.414,33.414,0,0,1-5.128,4.087,7.82,7.82,0,0,1-3.933,1.272,3.542,3.542,0,0,1-2.7-.848,3.125,3.125,0,0,1-.81-2.236,8.4,8.4,0,0,1,.463-2.66,18.382,18.382,0,0,1,1.542-3.277c.733-1.272,1.7-2.815,2.892-4.665,1.2-1.812,2.66-4.048,4.434-6.709s3.856-5.822,6.246-9.485,5.167-7.981,8.29-12.917h4.164Z" transform="translate(-279.329 -105.99)" fill="#e60012" stroke="#e60012" stroke-miterlimit="10" stroke-width="2"/>
      </g>
    </g>
    <g id="Group_109" data-name="Group 109" transform="translate(85.187 99.122)">
      <g id="Group_108" data-name="Group 108" transform="translate(0 0)">
        <path id="Path_134" data-name="Path 134" d="M143.454,130.714c-1.388,1.311-3.123,2.892-5.205,4.781s-4.241,3.856-6.439,5.861c-2.2,2.044-4.318,4.01-6.285,5.976-2,1.928-3.586,3.624-4.82,5.051a10.726,10.726,0,0,1-1.774,3.046,2.961,2.961,0,0,1-2.121,1.272c-.54,0-.81-.231-.81-.655a1.186,1.186,0,0,1,.231-.733c.154-.193.347-.424.5-.617a3.208,3.208,0,0,0,.5-.694,1.832,1.832,0,0,0,.231-.925,8.644,8.644,0,0,0-.655-3.432,7.2,7.2,0,0,0-1.851-2.506,7.99,7.99,0,0,0-2.815-1.542,11.2,11.2,0,0,0-3.432-.5,6.17,6.17,0,0,0-1.735.347c-.733.231-1.581.5-2.506.81s-1.928.617-2.969.887a11.632,11.632,0,0,1-2.969.386,2.936,2.936,0,0,1-1.234-.231.771.771,0,0,1-.5-.733c0-.308.231-.617.733-.81a8.48,8.48,0,0,1,1.889-.578,23.129,23.129,0,0,1,2.506-.347c.925-.077,1.812-.154,2.7-.231s1.7-.116,2.429-.116c.733-.039,1.272-.039,1.658-.077a13.809,13.809,0,0,0,5.591-3.509,41.572,41.572,0,0,0,4.935-5.976c1.581-2.313,3.162-4.82,4.742-7.557s3.239-5.475,4.974-8.251a12.477,12.477,0,0,1-3.586-1.08,11.258,11.258,0,0,1-3.007-1.966,9.379,9.379,0,0,1-2.082-2.815,8.373,8.373,0,0,1-.771-3.547,6.142,6.142,0,0,1,.5-2.468,6.388,6.388,0,0,1,1.388-2.044,6.564,6.564,0,0,1,2.082-1.388,6.376,6.376,0,0,1,2.545-.5,8.665,8.665,0,0,1,2.236.27,8.958,8.958,0,0,1,1.812.655l-.231.655a8.68,8.68,0,0,0-1.7-.617,9.165,9.165,0,0,0-2.121-.231,5.37,5.37,0,0,0-2.352.5,5.606,5.606,0,0,0-1.812,1.311,6.036,6.036,0,0,0-1.157,1.812,5.387,5.387,0,0,0-.424,2.044,7.4,7.4,0,0,0,.771,3.239,9.254,9.254,0,0,0,2.044,2.7,10.37,10.37,0,0,0,2.969,1.928,9.966,9.966,0,0,0,3.509.848,40.341,40.341,0,0,1,4.126-5.282,41.65,41.65,0,0,1,5.244-4.858,26.512,26.512,0,0,1,6.015-3.547,15.876,15.876,0,0,1,6.439-1.388,5.826,5.826,0,0,1,3.663,1.041,3.763,3.763,0,0,1,1.35,3.239,7.029,7.029,0,0,1-1.581,4.126,16.159,16.159,0,0,1-4.357,3.933,25.7,25.7,0,0,1-6.555,2.93,28.736,28.736,0,0,1-8.1,1.118c-.694,0-1.272,0-1.774-.039s-1-.039-1.5-.077c-1.5,2.352-3.007,4.781-4.55,7.287a71.322,71.322,0,0,1-4.974,7.133,45.206,45.206,0,0,1-5.976,6.169,25.749,25.749,0,0,1-7.441,4.434l.116.116c.308-.039.694-.077,1.08-.116a13.455,13.455,0,0,1,1.349-.077c2.776,0,4.82.655,6.169,2a8.407,8.407,0,0,1,2.468,4.935c1.619-1.812,3.354-3.624,5.244-5.4,1.851-1.774,3.779-3.547,5.706-5.282s3.894-3.47,5.822-5.205,3.779-3.393,5.552-5.012Zm7.249-26.836a10.9,10.9,0,0,0-5.4,1.5,25.251,25.251,0,0,0-4.974,3.7,36.141,36.141,0,0,0-4.241,4.82,54.374,54.374,0,0,0-3.2,4.781c.463.039.925.077,1.388.077.5.039,1.041.039,1.7.039a25.986,25.986,0,0,0,5.938-.733,25.642,25.642,0,0,0,5.976-2.159,15.387,15.387,0,0,0,4.627-3.547,7.179,7.179,0,0,0,1.851-4.9,3.483,3.483,0,0,0-.925-2.66A3.8,3.8,0,0,0,150.7,103.878Z" transform="translate(-96.8 -103.3)" fill="#fff" stroke="#fff" stroke-miterlimit="10" stroke-width="2"/>
        <path id="Path_135" data-name="Path 135" d="M178.3,160.939c-1.465,2.121-2.93,4.126-4.4,6.092-1.465,1.928-2.776,3.74-3.933,5.359s-2.082,3.046-2.815,4.28a6.375,6.375,0,0,0-1.08,2.93c0,1.2.578,1.774,1.7,1.774a7.418,7.418,0,0,0,4.087-1.7,36.547,36.547,0,0,0,4.974-4.55,76.984,76.984,0,0,0,5.321-6.516c1.812-2.468,3.547-5.012,5.205-7.711h3.779c-2.391,3.277-4.627,6.67-6.709,10.14s-4.241,6.9-6.516,10.295a25.354,25.354,0,0,0,11.027-5.09,42.531,42.531,0,0,0,9.331-10.063l.424.193a40.5,40.5,0,0,1-9.948,10.719,26.332,26.332,0,0,1-11.3,4.974c-1.581,2.159-3.2,4.318-4.82,6.555a42.218,42.218,0,0,1-5.4,5.976,26.751,26.751,0,0,1-6.478,4.318,18.36,18.36,0,0,1-7.981,1.658,13.63,13.63,0,0,1-3.817-.5,10.572,10.572,0,0,1-3.123-1.427,7.175,7.175,0,0,1-2.121-2.2,5.038,5.038,0,0,1-.81-2.738,5.234,5.234,0,0,1,2.082-4.627,8.712,8.712,0,0,1,5.089-1.465v.193a4.988,4.988,0,0,0-3.239,1.966,6.387,6.387,0,0,0-1.041,3.74,5.575,5.575,0,0,0,.617,2.7,5.746,5.746,0,0,0,1.581,1.966,7.407,7.407,0,0,0,2.236,1.234,8.431,8.431,0,0,0,2.583.424,12.529,12.529,0,0,0,5.552-1.35,24.252,24.252,0,0,0,5.128-3.509,41.494,41.494,0,0,0,4.7-4.974c1.5-1.851,2.93-3.74,4.241-5.706,1.35-1.966,2.583-3.894,3.74-5.784s2.236-3.586,3.2-5.089l-.116-.116c-.655.771-1.427,1.658-2.391,2.7a32.309,32.309,0,0,1-3.085,2.969,21.2,21.2,0,0,1-3.547,2.391,8.314,8.314,0,0,1-3.894.964,4.025,4.025,0,0,1-2.815-.81,2.733,2.733,0,0,1-.848-2.121,6.237,6.237,0,0,1,.655-2.583,27.044,27.044,0,0,1,2.044-3.432c.925-1.388,2.121-3.046,3.547-5.051s3.162-4.473,5.205-7.4H178.3Z" transform="translate(-125.125 -138.691)" fill="#fff" stroke="#fff" stroke-miterlimit="10" stroke-width="2"/>
        <path id="Path_136" data-name="Path 136" d="M292.8,165.591a55.524,55.524,0,0,1-4.241,5.822,39.322,39.322,0,0,1-5.244,5.205,25.577,25.577,0,0,1-6.246,3.74,18.1,18.1,0,0,1-7.21,1.427,10.441,10.441,0,0,1-2.738-.347,7.088,7.088,0,0,1-2.236-1.08,5.885,5.885,0,0,1-1.5-1.851,5.649,5.649,0,0,1-.578-2.66,4.416,4.416,0,0,1,1.041-2.853,3.429,3.429,0,0,1,2.815-1.272,2.334,2.334,0,0,1,1.5.463,1.671,1.671,0,0,1,.578,1.388,2.62,2.62,0,0,1-.424,1.465,1.385,1.385,0,0,1-1.272.617,1.579,1.579,0,0,1-1.08-.347,1.564,1.564,0,0,1-.5-.925,1.962,1.962,0,0,0-.925,1.08,4.425,4.425,0,0,0-.231,1.427,3.6,3.6,0,0,0,1.619,3.2,6.561,6.561,0,0,0,3.624,1.08,4.663,4.663,0,0,0,2.236-.5,5.349,5.349,0,0,0,1.581-1.35,5.271,5.271,0,0,0,.925-1.928,8.633,8.633,0,0,0,.308-2.2,7.552,7.552,0,0,0-.386-2.391c-.27-.848-.54-1.658-.887-2.468-.308-.81-.617-1.619-.925-2.391a7.114,7.114,0,0,1-.424-2.236,5.321,5.321,0,0,1,.54-2.391,5.194,5.194,0,0,1,1.5-1.812,6.754,6.754,0,0,1,2.159-1.118,7.983,7.983,0,0,1,2.545-.386,6.708,6.708,0,0,1,3.971,1.08,3.286,3.286,0,0,1,1.5,2.815,2.516,2.516,0,0,1-1.2,2.313,4.849,4.849,0,0,1-2.66.733,9.387,9.387,0,0,0,.655-1.619,5.776,5.776,0,0,0,.27-1.735,2.922,2.922,0,0,0-.771-2.044,2.82,2.82,0,0,0-2.159-.81,3.093,3.093,0,0,0-2.622,1.08,3.934,3.934,0,0,0-.848,2.583,7.087,7.087,0,0,0,.463,2.545,22.3,22.3,0,0,0,1.08,2.429c.347.81.694,1.658,1,2.506a8.357,8.357,0,0,1,.463,2.853,5.109,5.109,0,0,1-.5,2.236,7.415,7.415,0,0,1-1.388,1.928,9.244,9.244,0,0,1-1.928,1.5,6.705,6.705,0,0,1-2.159.81l.116.116a17.5,17.5,0,0,0,6.285-1.928,28.236,28.236,0,0,0,5.552-3.779,37.966,37.966,0,0,0,4.781-4.858,52.33,52.33,0,0,0,3.817-5.205Z" transform="translate(-198.796 -138.138)" fill="#fff" stroke="#fff" stroke-miterlimit="10" stroke-width="2"/>
        <path id="Path_137" data-name="Path 137" d="M356.491,165.838a12.43,12.43,0,0,1-3.277,2.622,7.594,7.594,0,0,1-3.586.964,5.53,5.53,0,0,1-2.93-.771,6.087,6.087,0,0,1-1.889-1.812h-.116a18.938,18.938,0,0,1-2.236,4.935,24.473,24.473,0,0,1-3.933,4.82,23.228,23.228,0,0,1-5.012,3.663,11.869,11.869,0,0,1-5.591,1.465,5.117,5.117,0,0,1-3.971-1.5,5.934,5.934,0,0,1-1.349-4.087,9.244,9.244,0,0,1,.655-3.085,19.556,19.556,0,0,1,1.851-3.547,26.106,26.106,0,0,1,2.815-3.509,22.1,22.1,0,0,1,3.509-3.085,17.527,17.527,0,0,1,3.971-2.2,11.662,11.662,0,0,1,4.241-.81,5.026,5.026,0,0,1,3.856,1.465,5.681,5.681,0,0,1,1.5,3.779,4,4,0,0,0,1.311,2.583,4.366,4.366,0,0,0,3.239,1.2,6.742,6.742,0,0,0,3.432-.925,12.435,12.435,0,0,0,3.007-2.391ZM325.877,177.6a4.389,4.389,0,0,0,.617,2.506,2.039,2.039,0,0,0,1.812.925,6.72,6.72,0,0,0,3.239-.887,13.175,13.175,0,0,0,3.085-2.313,22.7,22.7,0,0,0,2.776-3.239,31.354,31.354,0,0,0,2.236-3.779,27.917,27.917,0,0,0,1.5-3.817,12.618,12.618,0,0,0,.54-3.393,3.589,3.589,0,0,0-.656-2.159,2.289,2.289,0,0,0-1.966-.887,5.668,5.668,0,0,0-2.738.81,17.422,17.422,0,0,0-2.969,2.159,21.776,21.776,0,0,0-2.815,3.085,31.364,31.364,0,0,0-2.391,3.663,20.135,20.135,0,0,0-1.658,3.779A11.089,11.089,0,0,0,325.877,177.6Z" transform="translate(-235.539 -138.077)" fill="#fff" stroke="#fff" stroke-miterlimit="10" stroke-width="2"/>
        <path id="Path_138" data-name="Path 138" d="M417.831,105.4c-3.624,5.475-6.747,10.218-9.446,14.189-2.66,4.01-4.974,7.4-6.863,10.256s-3.47,5.167-4.665,7.017c-1.234,1.851-2.159,3.354-2.853,4.55a21.41,21.41,0,0,0-1.427,2.815,4.921,4.921,0,0,0-.386,1.774c0,1,.463,1.5,1.349,1.5a7.249,7.249,0,0,0,3.547-1.234,32.365,32.365,0,0,0,4.4-3.393,55.806,55.806,0,0,0,4.781-5.051c1.619-1.928,3.2-3.971,4.743-6.169l.655.231c-1.465,2.082-3.007,4.048-4.627,5.976a68.232,68.232,0,0,1-4.665,5.012,33.416,33.416,0,0,1-5.128,4.087,7.821,7.821,0,0,1-3.933,1.272,3.542,3.542,0,0,1-2.7-.848,3.125,3.125,0,0,1-.81-2.236,8.4,8.4,0,0,1,.463-2.66,18.381,18.381,0,0,1,1.542-3.277c.733-1.272,1.7-2.815,2.892-4.665,1.2-1.812,2.66-4.048,4.434-6.709s3.856-5.822,6.246-9.485,5.167-7.981,8.29-12.917h4.164Z" transform="translate(-276.829 -104.59)" fill="#fff" stroke="#fff" stroke-miterlimit="10" stroke-width="2"/>
      </g>
    </g>
    <g id="Group_116" data-name="Group 116" transform="translate(149.807 96.5)">
      <g id="Group_115" data-name="Group 115" transform="translate(0)">
        <path id="Path_139" data-name="Path 139" d="M294.708,110.072a6.283,6.283,0,0,1-.655.424l-4.742,7.21c.077.039.193.077.27.116Zm-1.272.655c-.193.039-.386.077-.54.116l-4.2,6.632.347.116Zm-1.118.116h-.154c-.077,0-.154-.039-.231-.039h-.116l-3.856,6.478a2.656,2.656,0,0,1,.308.116Zm-1-.27a.038.038,0,0,1-.039-.039c-.039,0-.039-.039-.077-.039-.077-.039-.116-.077-.193-.116-.039,0-.039-.039-.077-.039l-.039-.039-3.7,6.67.347.116Zm-1.928-1.851a10.327,10.327,0,0,1-.463-.925l-3.74,8.752c.193.039.347.077.54.116Zm.964,1.157-.154-.154-.039-.039-.116-.116-.039-.039c-.039-.039-.077-.116-.116-.154l-3.624,7.4.463.116Zm-1.774-3.046a3.21,3.21,0,0,1-.154-.578c-.231.154-.463.308-.655.424-.039,0-.039.039-.077.039l-3.393,9.639c.154.039.308.039.463.077Zm-3.817.5a3.385,3.385,0,0,1-.887-.27l-1.735,9.1c.193,0,.347.039.54.039Zm1.889-.154a5.078,5.078,0,0,1-1,.193l-2.429,8.868a2.6,2.6,0,0,1,.54.077Zm-3.663-.617a4.569,4.569,0,0,1-.887-.848l-1,10.41a2.2,2.2,0,0,1,.5.039Zm-15.731,3.971a3.145,3.145,0,0,1-.655-.424l5.244,7.788a1.879,1.879,0,0,1,.27-.116Zm1.157.308a1.232,1.232,0,0,1-.54-.116l4.511,6.94c.116-.039.193-.077.308-.116Zm1.041-.077a1.935,1.935,0,0,1-.463.077l4.01,6.593c.116-.039.193-.077.308-.116Zm.964-.463c-.154.077-.27.193-.424.27l3.779,6.632a2.655,2.655,0,0,0,.308-.116Zm1.928-2.545-.463.925,3.586,8.058c.154-.039.347-.077.5-.116Zm-.925,1.619a5.926,5.926,0,0,1-.463.5l3.586,7.094c.154-.039.27-.077.424-.116Zm2.236-2.583c-.039-.039-.077-.039-.116-.077a6.7,6.7,0,0,1-.694-.424c-.039.193-.116.347-.154.54l3.7,9.716c.154-.039.308-.039.463-.077Zm3.779.27a3.385,3.385,0,0,1-.887.27l1.889,8.907c.154,0,.347-.039.5-.039Zm-1.774.308a4.6,4.6,0,0,1-1-.193l2.7,9.177c.154-.039.347-.039.5-.077Zm3.509-1.7a4.569,4.569,0,0,1-.887.848l1.118,9.639c.154,0,.347-.039.5-.039Zm2.044-1.388a11.547,11.547,0,0,1-.578-1.388,7.49,7.49,0,0,1-.578,1.388l.231,11.875h.424Z" transform="translate(-265.75 -100.432)" fill="#e60012"/>
        <g id="Group_110" data-name="Group 110" transform="translate(13.995)">
          <path id="Path_140" data-name="Path 140" d="M301.583,98.428a.965.965,0,0,0,0-1.928.916.916,0,0,0-.887.964A.893.893,0,0,0,301.583,98.428Z" transform="translate(-300.694 -96.5)" fill="#e60012"/>
          <path id="Path_141" data-name="Path 141" d="M302.28,97.478a.541.541,0,1,1-.54-.578A.56.56,0,0,1,302.28,97.478Z" transform="translate(-301.005 -96.746)" fill="#e60012"/>
          <path id="Path_142" data-name="Path 142" d="M302.086,97.593a.193.193,0,1,1-.193-.193A.182.182,0,0,1,302.086,97.593Z" transform="translate(-301.312 -97.053)" fill="#e60012"/>
        </g>
        <g id="Group_111" data-name="Group 111" transform="translate(22.452 3.504)">
          <path id="Path_143" data-name="Path 143" d="M323,107.4c.347.154.733-.193.887-.694.193-.5.116-.964-.231-1.08-.347-.154-.771.116-.964.617A.946.946,0,0,0,323,107.4Z" transform="translate(-322.626 -105.588)" fill="#e60012"/>
          <path id="Path_144" data-name="Path 144" d="M324.032,106.663c-.116.308-.347.5-.578.386-.231-.077-.27-.424-.154-.694a.523.523,0,0,1,.617-.386C324.109,106.084,324.148,106.354,324.032,106.663Z" transform="translate(-323.001 -105.81)" fill="#e60012"/>
          <path id="Path_145" data-name="Path 145" d="M324.1,106.647a.172.172,0,0,1-.231.116.18.18,0,0,1-.039-.27.172.172,0,0,1,.231-.116A.292.292,0,0,1,324.1,106.647Z" transform="translate(-323.342 -106.064)" fill="#e60012"/>
        </g>
        <g id="Group_112" data-name="Group 112" transform="translate(28.885 7.877)">
          <path id="Path_146" data-name="Path 146" d="M340.078,117.843c.154-.308.231-.771.039-.887s-.54.154-.694.463-.154.771.039.887C339.616,118.46,339.924,118.152,340.078,117.843Z" transform="translate(-339.311 -116.929)" fill="#e60012"/>
          <path id="Path_147" data-name="Path 147" d="M340.177,117.333c.077.077.039.308-.039.5-.077.154-.27.308-.386.231a.421.421,0,0,1-.077-.386c.039-.077.039-.154.077-.193l.116-.116C340.023,117.294,340.1,117.256,340.177,117.333Z" transform="translate(-339.526 -117.151)" fill="#e60012"/>
          <path id="Path_148" data-name="Path 148" d="M340.383,117.569c-.039.077-.116.116-.154.077a.127.127,0,0,1,0-.193c.039-.077.116-.116.154-.077C340.383,117.414,340.422,117.492,340.383,117.569Z" transform="translate(-339.848 -117.194)" fill="#e60012"/>
        </g>
        <g id="Group_113" data-name="Group 113" transform="translate(0 7.877)">
          <path id="Path_149" data-name="Path 149" d="M265.168,118.267c.193-.116.193-.54.039-.848s-.5-.578-.694-.463-.116.54,0,.848C264.667,118.152,264.976,118.422,265.168,118.267Z" transform="translate(-264.395 -116.929)" fill="#e60012"/>
          <path id="Path_150" data-name="Path 150" d="M264.684,117.763c-.077-.193-.116-.424,0-.5s.347.039.424.231.116.424,0,.5C264.954,118.071,264.761,117.917,264.684,117.763Z" transform="translate(-264.528 -117.119)" fill="#e60012"/>
          <path id="Path_151" data-name="Path 151" d="M265.008,117.5a.117.117,0,0,1,0,.154.1.1,0,0,1-.154-.039.117.117,0,0,1,0-.154A.1.1,0,0,1,265.008,117.5Z" transform="translate(-264.659 -117.24)" fill="#e60012"/>
        </g>
        <g id="Group_114" data-name="Group 114" transform="translate(5.913 3.504)">
          <path id="Path_152" data-name="Path 152" d="M280.761,107.4a.881.881,0,0,0,.27-1.157c-.193-.5-.617-.771-.964-.617s-.424.617-.231,1.08C280.028,107.212,280.414,107.559,280.761,107.4Z" transform="translate(-279.732 -105.588)" fill="#e60012"/>
          <path id="Path_153" data-name="Path 153" d="M280.682,107.114c-.231.077-.424-.116-.54-.424-.077-.27-.039-.54.193-.617s.463.116.578.386A.561.561,0,0,1,280.682,107.114Z" transform="translate(-279.962 -105.875)" fill="#e60012"/>
          <path id="Path_154" data-name="Path 154" d="M280.708,106.654a.154.154,0,1,1-.154-.154A.141.141,0,0,1,280.708,106.654Z" transform="translate(-280.143 -106.148)" fill="#e60012"/>
        </g>
      </g>
      <path id="Path_155" data-name="Path 155" d="M295.322,110.072l-5.128,7.711a.565.565,0,0,0-.154-.077l4.9-7.364Zm-1.581.771-4.28,6.67c.116.039.039.039.154.077l4.434-6.863Zm-1.08.039-3.894,6.439c.116.039.039,0,.154.039l3.971-6.478Zm-.964-.424-3.74,6.593c.116.039.039,0,.154.039l3.779-6.516Zm-1.966-2.082-3.624,8.213c.193.039.077,0,.27.039l3.663-7.943Zm.964,1.311-3.586,7.133c.154.039.077,0,.231.039l3.624-6.979Zm-1.5-2.853a3.208,3.208,0,0,1-.154-.578c-.231.617-3.894,10.14-3.894,10.14.154.039.077.039.231.039Zm-4.318.771-1.851,8.6h.231l2.121-8.868Zm1.812-.039-2.583,8.714c.193.039.077,0,.27.039l2.892-9.138ZM267.6,110.38l4.974,7.48c.077-.039.039,0,.116-.039l-4.858-7.287Zm1.157.424,4.4,6.825c.116-.039.039-.039.154-.077l-4.28-6.709Zm1.08.039,3.933,6.593c.116-.039.039,0,.154-.039l-3.856-6.593Zm1-.386,3.74,6.709c.116-.039.039,0,.154-.039l-3.7-6.786Zm2.121-2.7a3.527,3.527,0,0,1-.27.54l3.624,8.405c.154-.039.077,0,.27-.039Zm-1.157,1.889,3.547,7.249c.154-.039.077,0,.231-.039l-3.547-7.48Zm5.475,6.863c.154-.039.077,0,.231-.039l-3.239-9.678c-.039-.039-.578-.347-.771-.5Zm.54-9.215a1.507,1.507,0,0,1-.193.154l1.658,8.83a.753.753,0,0,0,.27-.039L278.01,107.1A.668.668,0,0,1,277.818,107.3Zm-1.542.077a1.885,1.885,0,0,1-.424.27l2.391,8.714c.154-.039.077,0,.27-.039Zm3.277-1.272c-.116.154-.193.27-.193.27l.925,9.793h.231l-.771-10.449C279.784,105.676,279.707,105.907,279.553,106.1Zm1.581,10.063h.193l.463-11.875a11.562,11.562,0,0,1-.578-1.388Zm1.966-9.292-1.08,9.254h.231l1.349-9.6Z" transform="translate(-266.364 -100.432)" fill="#e60012"/>
      <path id="Path_156" data-name="Path 156" d="M297.959,138.112l-.231.116c.077.039.193.077.27.116Zm-.578-.231-.27.116.347.116Zm-.655-.231-.27.154a2.66,2.66,0,0,1,.308.116Zm-.848-.27-.308.116.347.116Zm-1.889-.5-.386.193c.193.039.347.077.54.116Zm1.041.231-.347.154.463.116Zm-2.005-.424-.347.231c.154.039.308.039.463.077Zm-2.121-.27-.347.27c.193,0,.347.039.54.039Zm1.08.116-.347.231a2.6,2.6,0,0,1,.54.077Zm-2.121-.193-.308.308a2.2,2.2,0,0,1,.5.039Zm-9.562,1.889v.231a1.881,1.881,0,0,1,.27-.116Zm.54-.231-.039.231c.116-.039.193-.077.308-.116Zm.617-.27-.039.231c.116-.039.193-.077.308-.116Zm.81-.27-.039.27a2.656,2.656,0,0,0,.308-.116Zm1.735-.5-.116.308c.154-.039.5-.116.5-.116Zm-.964.27-.077.308c.154-.039.27-.077.424-.116Zm1.928-.463-.116.308c.154-.039.308-.039.463-.077Zm2.082-.347-.193.347c.154,0,.347-.039.5-.039Zm-1.08.154-.193.308c.154-.039.347-.039.5-.077Zm2.082-.231-.231.386c.154,0,.347-.039.5-.039Zm.887-.039-.231.347h.424Z" transform="translate(-274.168 -120.954)" fill="#e60012"/>
    </g>
  </g>
</svg>
