<svg xmlns="http://www.w3.org/2000/svg" viewBox="0 0 479.8 507.88"><defs>

</defs>

<g id="Beer_Mug" data-name="Beer Mug"><path class="cls-1" d="M271.81,225c1.84-7,5.58-13.14,14.21-15,.84-.18,1.7-1.41,2.11-2.35,3.72-8.5,13.09-12.38,21.59-8.5,2.49,1.13,4.45,3.42,6.67,5.15.71.54,1.58,1.49,2.24,1.38,10.09-1.67,9.94,2.26,12.72,9.59,14.23.53,20.39,12.48,15.44,20.46,5.87,6.76,6.3,16.63-7.19,18.33.69,5.08,1.38,10.16,2.15,15.78,5.83,0,11.73.14,17.62,0,7-.21,8.78.81,9.44,9.06.72,9.1-.56,18.35-1,27.54-.19,4.29-.2,8.6-.6,12.87a129.7,129.7,0,0,1-2,15.75c-1.14,5.26-6.27,5.07-10.23,5.88-2.7.56-5.6.11-9.07.11v6.21c0,1.63.4,3.39-.07,4.88-1.69,5.35-1.28,9,5.5,9.87,1.06.14,1.58,4.36,2.63,7.56-4.65,0-8.2.26-11.7-.05-11.43-1-22.83-2.67-34.29-3.27-6.87-.35-13.82.79-20.73,1.29-3.38.25-6.74.67-10.12.88-6,.39-12,.69-18,1-1.07-7.25-.73-7.87,5.88-9.54,2.91-.73,3.39-2.81,2-4.63-2.73-3.58-2.2-7.5-2-11.4.82-18.2,1.72-36.4,2.6-54.6.58-11.84,1.14-23.69,1.8-35.53.16-2.9-.74-4.43-3.72-5.52-7.91-2.9-10.14-16.64-3.59-20.39C264.72,226.34,268,226.07,271.81,225Zm50.64-11.77c3.81,4.55,1.63,10.21-3.36,11.52-2.08.54-4.91-1.06-7.08-2.27-.41-.23.91-3.12,1-4.81.11-3.07.84-6.63-.4-9.12-2.34-4.7-8.61-6.13-13.77-4.18-4.69,1.76-5.93,4.63-5.74,11a6.82,6.82,0,0,1-2.75,4.81c-2.81,2-6.08,3.33-9.22,5-1-4.31,3.87-6.13,6.26-10.4-2.32.82-4.13.94-5.11,1.91-3.67,3.61-5.75,8.1-5.19,13.33.48,4.47-.3,5.23-4.72,4.66-1.53-.2-3.24,1-5.37,1.67.14-1.16.35-2.94.58-4.87-4,.38-4,3.44-3.59,6.39.7,5.13,4.88,7,11.85,5.64l1.86-4.32c2,5.11,6.44,8.72,11.17,9.29,5.46.66,6.13-3.24,7.06-6.95.78-3.16,2.47-2.32,4.16-1a17.83,17.83,0,0,1,2.2,2.49c5.42-3.42,12.44-1.3,13.22,4a49.8,49.8,0,0,1,.07,10.85c-.19,2.44-1.76,4.9-1.5,7.21a15.71,15.71,0,0,0,3.14,8.22c1.08,1.25,5.09,1.63,6.39.61,1.69-1.33,2.64-4.38,2.78-6.76.21-3.77-.77-7.61-.78-11.42,0-5.9,3.7-8.61,9.5-7.59a19.78,19.78,0,0,0,7.07.12c1.4-.27,3.43-1.77,3.57-2.92a7.11,7.11,0,0,0-1.67-5.35c-1.89-1.84-4.55-2.9-6.88-4.29l1.23-.83c-.84-1.77-1.25-4.37-2.64-5.1-1.69-.89-4.21-.21-6.37-.21l-.62-1.21a25.94,25.94,0,0,1,4.07-2.71c5.38-2.31,6.42,3.29,9.28,5.76,1.56-4.85.21-8.51-3.94-9.18-2.6-.41-5.48,1-8.23,1.52-1.26.25-2.53.46-3.8.69.19-1.29.41-2.58.57-3.87.23-1.81,1.16-4,.44-5.33-1-1.81-3.23-2.93-4.93-4.36a42.43,42.43,0,0,0-2.45,4.14,19.55,19.55,0,0,0-1.52,4.62,12.86,12.86,0,0,0,.32,3.34c1-.81,2.65-1.43,3-2.47C322.22,218.59,322.13,216.36,322.45,213.26ZM299.57,309h.05c0,7.57-.11,15.14,0,22.7.16,8.8,2.52,12.29,8.69,13.43,4.06.76,7.45-1.71,7.35-5.77q-.76-30.24-1.8-60.46c-.13-3.92-4.35-7.45-8.11-7.3-3.29.13-6.18,3.58-6.2,7.63C299.54,289.11,299.57,299,299.57,309Zm22.78-27.44c.08.78.34,2.23.37,3.68q.48,25.14.91,50.28c0,.45,0,.9,0,1.34.48,5.17,4.21,8.44,9,7.91,4-.45,6.35-5,5.7-10a153.3,153.3,0,0,1-1.16-15.45c-.2-7,.27-14-.17-20.92-.45-7.18-1.63-14.32-2.55-21.48-.37-2.87-2.32-3.54-4.41-2.11C327.45,276.56,325.26,278.92,322.35,281.52ZM290,316.64h-.19c0-6.52.1-13,0-19.56s-.39-13.32-.82-20a6.46,6.46,0,0,0-1.83-4.13c-3.48-3-7.49-.57-8,5.05-1.06,12.36-1.91,24.74-2.69,37.12-.43,6.93-.64,13.88-.78,20.82-.05,2-.21,4.58.88,5.95a15.43,15.43,0,0,0,6.94,5.12c1.29.38,3.91-2,5.17-3.68,1-1.36,1.23-3.56,1.27-5.4C290,330.86,290,323.75,290,316.64Zm67.68-9.2v-8.9c0-3.11,0-6.22,0-9.34.06-12.29-1.52-10.61-10.52-10.54-5.58,0-6,.11-5.55,5.82,1.25,15.29,2.93,30.54,4.3,45.83.45,5.07,4,4.58,7.41,4.64,3.7.06,4.36-2.28,4.35-5.27C357.6,322.27,357.62,314.86,357.63,307.44Zm5.48,3.28,1.11,0c.46-5.46,1.09-10.91,1.32-16.37a128.57,128.57,0,0,0-.11-15.08c-.39-5.07-2.14-6-6.3-4.27C362.75,286.62,362.84,298.69,363.11,310.72Zm-90.27-26.14,1.73.09c3.24-11.22,1.44-22.77,1.18-34.47-1.4.85-2.47,2-2.53,3.15-.35,8.14-.52,16.28-.67,24.43C272.5,280,272.73,282.31,272.84,284.58Zm34.76-29.39c2.33-1.5,4.64-2.21,5.17-3.59.42-1.09-1-3.39-2.28-4.47-.85-.75-2.71-.36-4.12-.47-1.61-.13-3.22-.28-4.82-.38-1-.06-2.06-.05-3.09-.08.07,1.2-.33,3,.28,3.48C301.43,251.67,304.41,253.26,307.6,255.19ZM289.26,352a17,17,0,0,1-15.47-6C275.17,353.53,282.12,356,289.26,352Zm38.18-2.3-.35,1.29c2.55.54,5.2,1.74,7.63,1.4,1.78-.25,3.26-2.54,4.89-3.94Zm-38.31-97.56c.93,1.78,1.32,3.43,2.35,4.17A3.59,3.59,0,0,0,295,256c.83-.9.81-2.59,1.26-4.35Z" transform="translate(-55.05 -191.45)"/><path class="cls-1" d="M351.8,378.25c-12.64-1.39-24.88-2.94-37.16-4a119.33,119.33,0,0,0-17.33,0c-10.9.65-21.77,1.66-32.66,2.5a5.65,5.65,0,0,1-2.21,0,18.44,18.44,0,0,1-2.74-1.52c.83-.69,1.58-1.86,2.48-2,4.83-.68,9.68-1.35,14.54-1.57,10.76-.47,21.54-1.18,32.29-.87,12.8.37,25.58,1.59,38.35,2.7C349.66,373.61,353.09,373.93,351.8,378.25Z" transform="translate(-55.05 -191.45)"/><path class="cls-1" d="M323.6,201.43c-1.14-.64-3-1.11-3.65-2.26-.5-.85.05-3.07.89-3.81a18,18,0,0,1,6.44-3.88c1-.29,3.15,1.32,3.91,2.59,2.05,3.41,1.09,5.15-2.91,6.17Z" transform="translate(-55.05 -191.45)"/><path class="cls-1" d="M280,207.34c-3.91-.93-7.14-.89-7.15-5.46,0-2.4,1.13-4.12,3.38-3.21,2.9,1.18,5.43,3.25,8.12,4.94Z" transform="translate(-55.05 -191.45)"/><path class="cls-1" d="M257.2,349.73c3.34,1.91,5.19,3.9,3.37,7-.43.73-3.2,1.07-4,.44C253.27,354.52,256.66,352.53,257.2,349.73Z" transform="translate(-55.05 -191.45)"/><path class="cls-1" d="M337.43,214.2c-1.41-2.41-2.92-3.85-2.68-4.88.31-1.35,2-2.39,3.1-3.57.9,1.14,2.53,2.3,2.51,3.42C340.32,210.52,338.89,211.85,337.43,214.2Z" transform="translate(-55.05 -191.45)"/><path class="cls-1" d="M356.3,354.3c-2.31,1.36-3.62,2.76-4.68,2.59a4.22,4.22,0,0,1-2.68-2.95c-.14-.82,1.69-2.84,2.36-2.72C352.72,351.47,354,352.76,356.3,354.3Z" transform="translate(-55.05 -191.45)"/></g>

<g id="Brewery">

<path class="cls-1" d="M103.74,687.05l-.81,2.84a7,7,0,0,1-1.13,2.67,4.42,4.42,0,0,1-2.25.83l-6,.86a3.86,3.86,0,0,0-2.06,1,1.46,1.46,0,0,1-.64.36c-.54.1-.75,0-.63-.43l.94-3.37a3.54,3.54,0,0,1,.92-1.77,7,7,0,0,1,2.69-.87l4.47-.79a6.28,6.28,0,0,0,3-1,2.12,2.12,0,0,1,.84-.65C103.61,686.63,103.83,686.74,103.74,687.05Z" transform="translate(-55.05 -191.45)"/>
<path class="cls-1" d="M117.5,692.68a13.09,13.09,0,0,1-1.18,4.62,3.91,3.91,0,0,1-3,1.94,10.15,10.15,0,0,1-5-.7,19.77,19.77,0,0,0,1.72-6.13A15.91,15.91,0,0,0,113,693.6a4.9,4.9,0,0,0,1.91,0A24.07,24.07,0,0,0,117.5,692.68Zm1.85-14.58a12.87,12.87,0,0,1-1.21,4.64,4.14,4.14,0,0,1-3.1,2A10.41,10.41,0,0,1,110,684q1.11-1.49,1.78-6.21a19.64,19.64,0,0,0,2.92,1.24,4.7,4.7,0,0,0,2.06.06,5.84,5.84,0,0,0,1.66-.57A9,9,0,0,1,119.35,678.1Z" transform="translate(-55.05 -191.45)"/>
<path class="cls-1" d="M186,639.83A13.72,13.72,0,0,0,183,645q-.83,2.78-.49,10.36a84.57,84.57,0,0,1-.26,12.89,26.1,26.1,0,0,1-3.47,10.27,25.41,25.41,0,0,1-8,8.44,29.9,29.9,0,0,1-11.58,4.59q-5.73,1-9.15-.6a7.13,7.13,0,0,1-4.12-5.55,9.61,9.61,0,0,1-.16-2.41,21.51,21.51,0,0,1,4.33-3.74,12.37,12.37,0,0,1,3.53-1.91q1.55-.27,1.92,1.83c0,.23.07,1,.08,2.45a23.7,23.7,0,0,0,.09,2.53q.82,4.71,5.4,3.9t7.08-6.75q2.48-5.94,2.09-16.8c-.25-7.24.26-12.36,1.56-15.36a18.46,18.46,0,0,1,5.61-7.38c2.45-1.92,4.43-3,5.92-3.27C184.12,638.38,185,638.82,186,639.83Zm1.19,15c3.07-.54,5.13-2,6.16-4.42a12.9,12.9,0,0,0,.86-7.43,10.41,10.41,0,0,0-5.43-7.74q-4.5-2.46-11.19-1.28a29.61,29.61,0,0,0-15.32,7.45q-6.34,5.88-5.36,11.46.58,3.33,4.91,4.15c.74.13,1.12.31,1.17.54l.2,1.19q.15.84-3.05,2.71a17.54,17.54,0,0,1-4.29,2q-1.68.3-3.83-1.82a8.76,8.76,0,0,1-2.62-4.73q-.8-4.56,2.53-10.27a29.68,29.68,0,0,1,10.45-10.09,48.53,48.53,0,0,1,17-6.12q10.62-1.86,17.89.91c4.85,1.85,7.63,4.84,8.36,8.94q1.62,9.18-12.46,15.14,12.09,1.14,13.73,10.48,1.2,6.81-3.7,12.7A21,21,0,0,1,190.28,686a12.76,12.76,0,0,1-6.13-.22c-1.73-.57-2.7-1.45-2.92-2.65a6.24,6.24,0,0,1,1-3.48c.77-1.53,1.58-2.37,2.44-2.52q1.77-.32,2.76,3.3c.52,1.91,1.36,2.76,2.54,2.55q2.9-.51,4.11-6.6a31.88,31.88,0,0,0,.2-11.87q-1.23-7-7-6.77Z" transform="translate(-55.05 -191.45)"/><path class="cls-1" d="M245.15,666.71q-9.17,11.31-15,12.35a5.9,5.9,0,0,1-4.79-1.19,7,7,0,0,1-2.67-4.55q-.94-5.4,4-15.61A26.23,26.23,0,0,1,220,661a45.72,45.72,0,0,1-7,11.43l-1,.17-.6-3.44a53,53,0,0,0,4.91-7.73c-2.65-.53-4.14-1.76-4.48-3.67a11.59,11.59,0,0,1,1.16-6.69,7.25,7.25,0,0,1,5.64-4.45q3.36-.58,3.9,2.47a19.21,19.21,0,0,1-.72,7.23q7-1.95,10.79-11.92l3.9-.85L234.15,654c-.94,4.43-1.53,7.43-1.75,9a13.1,13.1,0,0,0,0,4.09,3.77,3.77,0,0,0,1.3,2.41,2.89,2.89,0,0,0,2.43.56,5.39,5.39,0,0,0,2.81-1.46q1.26-1.2,5.47-6.31Z" transform="translate(-55.05 -191.45)"/><path class="cls-1" d="M277.85,660.94a53.45,53.45,0,0,1-8.59,8.79,20.75,20.75,0,0,1-9.21,4A13.58,13.58,0,0,1,250,672a11.54,11.54,0,0,1-5.15-8.12q-1.43-8.11,3.76-15.79t12.9-9a10.51,10.51,0,0,1,6.75.7,5.86,5.86,0,0,1,3.27,4.4q1.39,7.92-16.71,16.2,3,7.15,10.33,5.87a11.72,11.72,0,0,0,5.19-2.32,46.28,46.28,0,0,0,6.75-7.4ZM254,657.85q10.56-4.71,9.25-12.13-.64-3.66-3.67-3.14c-1.89.34-3.48,1.94-4.75,4.81S253.28,653.74,254,657.85Z" transform="translate(-55.05 -191.45)"/><path class="cls-1" d="M338.12,650.31a14,14,0,0,1-3.76,2.91,12.06,12.06,0,0,1-3.07,1.22,10.69,10.69,0,0,1-6.55-1.06q-6.33,10-14.65,11.5-6.12,1.08-9.81-4.42-4.72,7-11.41,8.16a9.34,9.34,0,0,1-7.31-1.33,9.8,9.8,0,0,1-3.74-6.58,33.82,33.82,0,0,1-.19-10.07,119.52,119.52,0,0,1,2.53-13l11-3.87-1.68,9.09q-2.1,11.8-1.35,16a4.9,4.9,0,0,0,1.66,3.06,3.46,3.46,0,0,0,2.94.79q3.45-.62,6.06-6a35.48,35.48,0,0,1,.26-12.91L301,634l11.22-3.91-2.5,14.09q-1.22,6.8-.55,10.51a5.54,5.54,0,0,0,1.75,3.4,3.76,3.76,0,0,0,3.22.81,7.27,7.27,0,0,0,4.05-2.25A28.53,28.53,0,0,0,322,651.3a14.68,14.68,0,0,1-3.64-7.28,17,17,0,0,1,1.45-10.73c1.63-3.32,3.8-5.23,6.51-5.7,1.86-.33,3,.75,3.46,3.25q1.42,8.07-3.8,19.53a7.16,7.16,0,0,0,4.88,1c1.93-.34,4.1-2.15,6.51-5.45Z" transform="translate(-55.05 -191.45)"/><path class="cls-1" d="M370.78,644.55a53.56,53.56,0,0,1-8.59,8.8,20.75,20.75,0,0,1-9.21,4,13.64,13.64,0,0,1-10.06-1.66,11.56,11.56,0,0,1-5.15-8.13q-1.42-8.1,3.76-15.79t12.9-9a10.51,10.51,0,0,1,6.75.71,5.85,5.85,0,0,1,3.27,4.39q1.4,7.92-16.71,16.2,3,7.15,10.33,5.87a11.55,11.55,0,0,0,5.19-2.32,45.82,45.82,0,0,0,6.75-7.4Zm-23.85-3.09q10.56-4.69,9.25-12.12-.65-3.68-3.67-3.14c-1.89.33-3.48,1.93-4.75,4.8S346.21,637.35,346.93,641.46Z" transform="translate(-55.05 -191.45)"/><path class="cls-1" d="M403.49,638.79q-9.17,11.31-15,12.35a5.89,5.89,0,0,1-4.79-1.19A7.08,7.08,0,0,1,381,645.4q-.94-5.4,4-15.61a26.57,26.57,0,0,1-6.63,3.25,46.09,46.09,0,0,1-7.06,11.43l-1,.17-.61-3.44a53,53,0,0,0,4.91-7.73c-2.65-.53-4.14-1.76-4.47-3.67a11.49,11.49,0,0,1,1.15-6.69,7.26,7.26,0,0,1,5.64-4.45q3.38-.58,3.91,2.47a19.48,19.48,0,0,1-.73,7.23q7-2,10.8-11.93l3.89-.84-2.28,10.5q-1.41,6.64-1.75,9a13.06,13.06,0,0,0,0,4.09A3.81,3.81,0,0,0,392,641.6a2.89,2.89,0,0,0,2.43.56,5.36,5.36,0,0,0,2.81-1.46c.84-.8,2.67-2.9,5.47-6.31Z" transform="translate(-55.05 -191.45)"/><path class="cls-1" d="M450,630.59q-4.65,5.65-15.8,12.72-2.24,10.8-6.5,15.88a16.37,16.37,0,0,1-9.71,6,6.42,6.42,0,0,1-4.68-.71,5.18,5.18,0,0,1-2.37-3.69q-1.32-7.53,13.17-16.4l1.18-8.69q-6.74,9.51-12.9,10.6a6.82,6.82,0,0,1-5.79-1.46,9.75,9.75,0,0,1-3.19-6.07,32,32,0,0,1,.66-12.9l2.41-10.44,12.18-4.15-3.37,12.3q-2.24,8.86-1.49,13,.6,3.45,3.24,3c1.78-.31,3.59-2,5.42-4.9a33.19,33.19,0,0,0,4.1-10.43l2.8-12.88,11.42-4-5.94,31.89a49.61,49.61,0,0,0,14.38-13.1Zm-26.48,17.84a27.14,27.14,0,0,0-7.34,6.16c-1.6,2.09-2.25,4-2,5.66s1.27,2.42,2.91,2.13Q421.92,661.52,423.52,648.43Z" transform="translate(-55.05 -191.45)"/><path class="cls-1" d="M483.49,628.14a13.41,13.41,0,0,1-1.19,4.63,3.94,3.94,0,0,1-3,1.94,10.17,10.17,0,0,1-5-.71,19.61,19.61,0,0,0,1.72-6.12,15.68,15.68,0,0,0,2.94,1.18,4.55,4.55,0,0,0,1.91,0A22.42,22.42,0,0,0,483.49,628.14Zm1.84-14.57a12.93,12.93,0,0,1-1.21,4.64,4.14,4.14,0,0,1-3.11,1.95,10.5,10.5,0,0,1-5.06-.67q1.11-1.49,1.78-6.22a18.91,18.91,0,0,0,2.92,1.25,4.7,4.7,0,0,0,2.06.06,5.84,5.84,0,0,0,1.66-.57A7.17,7.17,0,0,1,485.33,613.57Z" transform="translate(-55.05 -191.45)"/><path class="cls-1" d="M504,616.47l-.81,2.85a7,7,0,0,1-1.13,2.66,4.42,4.42,0,0,1-2.25.83l-6,.86a3.86,3.86,0,0,0-2.06,1,1.41,1.41,0,0,1-.64.36c-.54.1-.75,0-.63-.43l.94-3.36a3.62,3.62,0,0,1,.92-1.78,7,7,0,0,1,2.7-.87l4.47-.79a6.28,6.28,0,0,0,3-1,2.19,2.19,0,0,1,.84-.65C503.88,616.05,504.1,616.16,504,616.47Z" transform="translate(-55.05 -191.45)"/>
</g>

<g id="Windex_Text" data-name="Windex Text"><path class="cls-1" d="M55.05,444.6,82.63,438c2,31.7,3.91,62.75,5.85,93.8H89c.71-9.32,1.35-18.64,2.14-28,1.36-16.09,2.81-32.17,4.24-48.25.54-6.05.93-12.12,1.83-18.11a5.47,5.47,0,0,1,3.5-3.51c8.47-2,17-3.57,25.86-5.35,2.14,36.43,4.27,72.66,6.39,108.9h.77c.35-4.44.72-8.89,1-13.34,1.16-16.56,2.38-33.12,3.42-49.68.53-8.58.64-17.19,1.16-25.77.42-6.94,1.06-13.88,1.88-20.79a4.16,4.16,0,0,1,2.64-2.86c8.31-1.53,16.68-2.78,25.51-4.19-4.15,54.79-8.29,109.36-12.44,164.08H120c-2.74-24.47-5.47-48.95-8.28-74.1-2.85,25.24-5.64,49.92-8.46,74.9H67.82C63.59,539,59.35,492.13,55.05,444.6Z" transform="translate(-55.05 -191.45)"/><path class="cls-1" d="M318.53,585.25v-177c6,0,12,0,18,0,1.59,0,3.18.61,4.77.62,8.15.1,16.27.74,23.88,3.72,8.69,3.4,14,10.19,16.27,19.14,3.54,14.09,2.93,28.53,3,42.88,0,26.57,0,53.15-.24,79.73a72.9,72.9,0,0,1-2,18c-1.67,6.23-6.82,10-13.16,11a169.53,169.53,0,0,1-20.75,1.8C338.53,585.47,328.75,585.25,318.53,585.25Zm28.31-25.75c4.31-1,8.34-1.37,8.9-6.38a105.79,105.79,0,0,0,.89-11.5q.12-41.18,0-82.35a51.3,51.3,0,0,0-.74-8.39c-.88-5.23-3.21-6.89-9.06-6.7Z" transform="translate(-55.05 -191.45)"/><path class="cls-1" d="M234.08,412.86a31.09,31.09,0,0,1,5-1.2c5.87-.45,11.75-.71,18-1.07q7.86,40.88,15.67,81.52l.91-.08V409h23.54V585H273c-5-22.9-10-45.86-15.15-69.85V585H234.08Z" transform="translate(-55.05 -191.45)"/><path class="cls-1" d="M534.8,586.14c-8,0-15.83.11-23.67-.13-1,0-2.61-1.76-2.81-2.9-2.25-12.76-4.26-25.56-6.36-38.35a22.53,22.53,0,0,0-2.32-7.58c-2,15.88-3.91,31.75-5.9,47.83H466.33c2.27-18.26,4.51-36.38,6.79-54.5,1.2-9.54,3.07-19,3.5-28.61.27-6.08-1.53-12.26-2.41-18.4-2.76-19.41-5.52-38.83-8.43-59.33,9.66,2.29,18.14,4.19,26.51,6.46.84.23,1.31,2.74,1.53,4.25,1.92,12.95,3.75,25.92,5.6,38.89l1.52.1c1.7-12.87,3.4-25.75,5.21-39.43,5.66,1.87,11.24,3.69,16.81,5.55,6.92,2.3,7.61,3.25,6.42,10.35-2.93,17.65-6.35,35.24-8.78,53-.72,5.3.93,11,2,16.45,2.06,10.87,4.56,21.65,6.67,32.52,2,10.26,3.73,20.58,5.55,30.89A19.2,19.2,0,0,1,534.8,586.14Z" transform="translate(-55.05 -191.45)"/><path class="cls-1" d="M405.19,413.51c7.7,1.17,15.18,2.27,22.65,3.45s15,2.32,22.42,3.74a4,4,0,0,1,2.47,2.87c.18,11.27.11,22.54.11,33.84L433.31,455c-.11,2.38-.28,4.39-.29,6.39,0,8,.09,16-.08,24-.06,3,.9,4.24,4,4.28,4.57.07,9.14.57,14,.91v30.61l-17.63-.85v35.23h21V585H405.19Z" transform="translate(-55.05 -191.45)"/><path class="cls-1" d="M184.15,418.58l27.5-3.82V585h-27.5Z" transform="translate(-55.05 -191.45)"/><path class="cls-1" d="M176.94,338.33h14.83v5.51h-9.48v5.83h8.07v5.51h-8.07v6.69h9.84v5.5H176.94Z" transform="translate(-55.05 -191.45)"/><path class="cls-1" d="M195.31,363.71l3.07-4.5c1.68,1.79,3.86,3,5.81,3,2.23,0,3.32-1.08,3.32-2.8S206.17,357,204.1,356L201,354.37a8.77,8.77,0,0,1,3.65-16.57,10,10,0,0,1,7.61,3.81l-2.7,4.13a7,7,0,0,0-4.91-2.27c-1.84,0-3,.94-3,2.6s1.55,2.43,3.62,3.44l3,1.5c2.89,1.43,4.69,3.79,4.69,7.9,0,4.82-3.27,9-8.91,9A11.79,11.79,0,0,1,195.31,363.71Z" transform="translate(-55.05 -191.45)"/><path class="cls-1" d="M220.92,343.84h-6.51v-5.51h18.37v5.51h-6.51v23.53h-5.35Z" transform="translate(-55.05 -191.45)"/><path class="cls-1" d="M231.7,363.79c0-2.33,1.37-4.13,3.22-4.13s3.22,1.8,3.22,4.13-1.37,4.12-3.22,4.12S231.7,366.11,231.7,363.79Z" transform="translate(-55.05 -191.45)"/><path class="cls-1" d="M379.94,362.09h5V345.72h-4.31v-4.07a13.92,13.92,0,0,0,5.72-2.57h3.93v23h4.32v5.28H379.94Z" transform="translate(-55.05 -191.45)"/><path class="cls-1" d="M398.14,364.5l2.82-3.92a4.85,4.85,0,0,0,3.58,2c2.71,0,4.79-2.51,4.79-10.05,0-7-1.79-9.11-3.74-9.11-1.58,0-2.9,1.37-2.9,4.57,0,3,1.28,4.12,3,4.12,1.21,0,2.54-.82,3.59-3l.24,4.28a6.32,6.32,0,0,1-4.86,3.4c-3.94,0-6.86-2.76-6.86-8.75s3.49-9.49,7.66-9.49c4.47,0,8.73,4.1,8.73,14,0,10.58-4.48,15.34-9.33,15.34A8.52,8.52,0,0,1,398.14,364.5Z" transform="translate(-55.05 -191.45)"/><path class="cls-1" d="M417.31,364.5l2.82-3.92a4.85,4.85,0,0,0,3.58,2c2.71,0,4.79-2.51,4.79-10.05,0-7-1.8-9.11-3.74-9.11-1.58,0-2.91,1.37-2.91,4.57,0,3,1.29,4.12,3,4.12,1.2,0,2.54-.82,3.59-3l.24,4.28a6.34,6.34,0,0,1-4.86,3.4c-4,0-6.87-2.76-6.87-8.75s3.49-9.49,7.67-9.49c4.47,0,8.72,4.1,8.72,14,0,10.58-4.47,15.34-9.32,15.34A8.51,8.51,0,0,1,417.31,364.5Z" transform="translate(-55.05 -191.45)"/><path class="cls-1" d="M436.39,353.88c0-10.58,4.47-15.34,9.32-15.34a8.53,8.53,0,0,1,6.74,3.41l-2.82,3.92a4.83,4.83,0,0,0-3.57-2c-2.68,0-4.8,2.51-4.8,10.05,0,7,1.8,9.11,3.75,9.11,1.57,0,2.9-1.37,2.9-4.56,0-3-1.29-4.13-3-4.13-1.2,0-2.54.83-3.58,3.05l-.24-4.28a6.31,6.31,0,0,1,4.85-3.39c3.95,0,6.87,2.75,6.87,8.75s-3.49,9.48-7.67,9.48C440.65,367.91,436.39,363.82,436.39,353.88Z" transform="translate(-55.05 -191.45)"/>
</g>
</svg>
